<svg width="111" height="116" viewBox="0 0 111 116" fill="none" xmlns="http://www.w3.org/2000/svg">
<path d="M109.755 55.9602C109.755 41.2032 110.063 26.1388 110.063 11.3818C109.755 10.152 109.14 8.61486 107.603 6.77024C106.681 5.23305 104.221 2.15868 99.9171 0.621495C98.9948 0.314058 95.613 -0.608254 91.9237 0.621495C87.0047 2.15868 84.8527 6.4628 84.2378 7.38511C83.3155 8.9223 83.008 10.4595 83.008 11.3818C83.008 11.9967 83.008 12.6115 83.008 13.2264C74.7072 8.30742 65.1767 5.23305 54.7238 5.23305C24.595 5.54049 0 30.1355 0 60.5717C0 91.008 24.595 115.296 54.7238 115.296C84.8527 115.296 109.448 90.7006 109.448 60.5717C109.755 59.0345 109.448 57.4974 109.755 55.9602ZM54.7238 85.1667C40.8891 85.1667 30.1288 74.099 30.1288 60.2643C30.1288 46.4296 41.1966 35.3619 55.0313 35.3619C68.8659 35.3619 79.9337 46.4296 79.9337 60.2643C79.9337 74.099 68.5585 85.1667 54.7238 85.1667Z" fill="white"/>
</svg>
